# xmcd
#
# Track frame offsets:
# 150
# 18486
# 38129
# 58307
# 72330
# 86393
# 106573
# 126751
#
# Disc length: 1950 seconds
#
# Revision: 0
# Processed by: cddbd v1.5.2PL0 Copyright (c) Steve Scherf et al.
# Submitted via: Audion 3.0.2 (http://www.panic.com/audion/)
#
DISCID=62079c08
DTITLE=Friends of Martin's Cove - Bring Them In
DYEAR=1900
DGENRE=
TTITLE0=Come, Come Ye Saints
TTITLE1=Prayer of the Walking Child
TTITLE2=The Handcart Song
TTITLE3=Go Bring Them In
TTITLE4=Arrival in the Valley
TTITLE5=Go Bring Them In-with choir
TTITLE6=Go Bring Them In-without choir
TTITLE7=Prayer of the Walking Child
EXTD=
EXTT0=
EXTT1=
EXTT2=
EXTT3=
EXTT4=
EXTT5=
EXTT6=
EXTT7=
PLAYORDER=
